<?xml version="1.0" encoding="iso-8859-1"?>
<!-- Uploaded to: SVG Repo, www.svgrepo.com, Generator: SVG Repo Mixer Tools -->
<svg height="800px" width="800px" version="1.1" id="Layer_1" xmlns="http://www.w3.org/2000/svg" xmlns:xlink="http://www.w3.org/1999/xlink" 
	 viewBox="0 0 512.002 512.002" xml:space="preserve">
<g>
	<path style="fill:#B3B3B3;" d="M224.633,134.455c-5.051,0-9.143-4.094-9.143-9.143c0-16.337,3.561-24.944,6.704-32.538
		c2.852-6.89,5.313-12.842,5.313-25.546s-2.463-18.655-5.313-25.546c-3.143-7.594-6.704-16.201-6.704-32.538
		c0-5.05,4.093-9.143,9.143-9.143c5.051,0,9.143,4.094,9.143,9.143c0,12.704,2.463,18.655,5.313,25.546
		c3.143,7.594,6.704,16.201,6.704,32.538s-3.561,24.944-6.704,32.538c-2.852,6.89-5.313,12.842-5.313,25.546
		C233.776,130.362,229.684,134.455,224.633,134.455z"/>
	<path style="fill:#B3B3B3;" d="M280.013,134.455c-5.051,0-9.143-4.094-9.143-9.143c0-11.176,2.426-17.039,4.567-22.212
		c1.775-4.29,3.177-7.679,3.177-15.221s-1.402-10.931-3.177-15.221c-2.141-5.174-4.567-11.038-4.567-22.212
		c0-5.05,4.093-9.143,9.143-9.143s9.143,4.094,9.143,9.143c0,7.541,1.402,10.931,3.177,15.221
		c2.141,5.174,4.567,11.038,4.567,22.213s-2.426,17.039-4.567,22.213c-1.775,4.29-3.177,7.679-3.177,15.221
		C289.157,130.362,285.064,134.455,280.013,134.455z"/>
	<path style="fill:#B3B3B3;" d="M173.525,134.455c-5.051,0-9.143-4.094-9.143-9.143c0-11.176,2.426-17.039,4.568-22.212
		c1.775-4.291,3.177-7.679,3.177-15.221s-1.402-10.931-3.177-15.221c-2.142-5.174-4.568-11.037-4.568-22.212
		c0-5.05,4.093-9.143,9.143-9.143c5.051,0,9.143,4.094,9.143,9.143c0,7.541,1.402,10.929,3.177,15.219
		c2.142,5.174,4.568,11.038,4.568,22.213s-2.426,17.039-4.568,22.213c-1.775,4.29-3.177,7.679-3.177,15.219
		C182.669,130.362,178.576,134.455,173.525,134.455z"/>
</g>
<g>
	<path style="fill:#2BA5F7;" d="M435.873,248.223v68.733c0,26.15-15.227,48.74-37.305,59.371l-0.11-1V227.925h17.128
		C426.79,227.925,435.873,237.007,435.873,248.223z"/>
	<path style="fill:#2BA5F7;" d="M385.17,454.459v2.682c0,25.248-20.469,45.717-45.717,45.717H121.843
		c-25.248,0-45.717-20.469-45.717-45.717v-2.682h45.985h217.074H385.17z"/>
</g>
<path style="fill:#2197D8;" d="M167.554,457.141v-2.682h-45.443H76.126v2.682c0,25.248,20.469,45.717,45.717,45.717h91.428
	C188.023,502.858,167.554,482.389,167.554,457.141z"/>
<path style="fill:#2BA5F7;" d="M358.423,382.824v22.48c0,18.982-7.29,36.256-19.238,49.154H122.111
	c-11.947-12.898-19.25-30.173-19.25-49.154v-243.2h255.562v65.82V382.824z"/>
<path style="fill:#2197D8;" d="M168.689,162.105h-65.828v243.2c0,18.982,7.302,36.256,19.25,49.154h65.829
	c-11.947-12.898-19.25-30.173-19.25-49.154v-243.2H168.689z"/>
<path style="fill:#FFFFFF;" d="M325.311,391.317c-5.051,0-9.143-4.094-9.143-9.143v-153.6c0-5.05,4.093-9.143,9.143-9.143
	s9.143,4.094,9.143,9.143v153.6C334.454,387.223,330.361,391.317,325.311,391.317z"/>
<path style="fill:#333333;" d="M415.587,218.784H367.57v-56.685c0-5.05-4.093-9.143-9.143-9.143H102.857
	c-5.051,0-9.143,4.094-9.143,9.143v243.202c0,14.178,3.646,27.908,10.477,40.011H76.127c-5.051,0-9.143,4.094-9.143,9.143v2.689
	c0,30.249,24.609,54.857,54.857,54.857H339.45c30.25,0,54.857-24.609,54.857-54.857v-2.689c0-5.05-4.093-9.143-9.143-9.143h-28.06
	c6.823-12.098,10.466-25.829,10.466-40.011v-13.339h2.448c41.356,0,75.001-33.645,75.001-75.001v-68.744
	C445.02,231.988,431.817,218.784,415.587,218.784z M339.45,493.715H121.841c-17.962,0-32.943-13.019-36-30.117H375.45
	C372.393,480.697,357.412,493.715,339.45,493.715z M126.287,445.312c-9.232-11.265-14.287-25.322-14.287-40.011V171.242h237.284
	v56.685v154.891v22.483c0,14.696-5.051,28.754-14.275,40.011H126.287z M367.57,373.675V237.07h21.74v133.222
	c-6.025,2.186-12.521,3.383-19.292,3.383H367.57z M426.733,316.961c0,16.868-7.41,32.028-19.135,42.426V237.07h7.99
	c6.146,0,11.146,5.001,11.146,11.146v68.744H426.733z"/>
<circle style="fill:#FFFFFF;" cx="325.308" cy="197.485" r="9.143"/>
</svg>